<svg xmlns="http://www.w3.org/2000/svg" width="1195.368" height="557.972" viewBox="0 0 1195.368 557.972">
  <g id="그룹_510" data-name="그룹 510" transform="translate(0 0)">
    <path id="패스_208" data-name="패스 208" d="M1093.708,767.269H612.285c-13.095,0-23.748-11.786-23.748-26.272V382.988a14.75,14.75,0,0,1,7.843-13.335L778.3,259.523a72.33,72.33,0,0,1,64.185-.065l267.074,110.184A14.751,14.751,0,0,1,1117.452,383V741C1117.456,755.483,1106.8,767.269,1093.708,767.269Z" transform="translate(-4.595 -210.371)" fill="#f2f2f2"/>
    <path id="패스_209" data-name="패스 209" d="M1022.584,741.29H609.178c-11.291,0-20.478-8.319-20.478-18.544V472.494a10.4,10.4,0,0,1,6.824-9.5l192.49-77a74.941,74.941,0,0,1,55.069-.027L1036.227,463a10.4,10.4,0,0,1,6.835,9.506V722.745C1043.063,732.972,1033.875,741.29,1022.584,741.29Z" transform="translate(-4.562 -184.78)" fill="#3987ee"/>
    <circle id="타원_35" data-name="타원 35" cx="60.575" cy="60.575" r="60.575" transform="translate(297.475 172.559)" fill="#ff6584"/>
    <ellipse id="타원_36" data-name="타원 36" cx="76.721" cy="96.032" rx="76.721" ry="96.032" transform="translate(306.653 261.613)" fill="#f2f2f2"/>
    <path id="패스_210" data-name="패스 210" d="M320.65,282.238h.211l3.794,217.516h-8.009Z" transform="translate(62.935 56.096)" fill="#ccc"/>
    <path id="패스_211" data-name="패스 211" d="M434.564,619.8h0a1.9,1.9,0,0,1-.795,2.562l-11,5.793L421,624.8l11-5.793a1.9,1.9,0,0,1,2.562.795Z" transform="translate(-37.893 -137.467)" fill="#ccc"/>
    <ellipse id="타원_37" data-name="타원 37" cx="76.721" cy="96.032" rx="76.721" ry="96.032" transform="translate(86.082 261.613)" fill="#f2f2f2"/>
    <path id="패스_212" data-name="패스 212" d="M251.149,647.107h0a1.9,1.9,0,0,0-2.563-.795l-7.682,4.044-2.631-150.849h-.211l-4,217.516h8.009l-1.089-62.42,9.375-4.936A1.9,1.9,0,0,0,251.149,647.107Z" transform="translate(-75.048 -161.174)" fill="#ccc"/>
    <path id="패스_213" data-name="패스 213" d="M345.1,331c53.69,0,97.329,101.164,97.329,168.367S398.9,621.051,345.214,621.051,248,566.572,248,499.367,291.409,331,345.1,331Z" transform="translate(-72.277 -194.666)" fill="#3987ee"/>
    <path id="패스_214" data-name="패스 214" d="M346.74,638.065a2.4,2.4,0,0,0-3.246-1.007l-9.734,5.125-3.332-191.141h-.267l-5.074,275.618h10.148l-1.38-79.092,11.879-6.254a2.4,2.4,0,0,0,1.006-3.247Z" transform="translate(-56.956 -170.807)" fill="#3f3d56"/>
    <path id="패스_215" data-name="패스 215" d="M712.742,544.451V518.568a12.728,12.728,0,0,0-12.729-12.728H634.7a12.728,12.728,0,0,0-12.728,12.728V544.45Z" transform="translate(2.052 -159.916)" fill="#fff"/>
    <path id="패스_216" data-name="패스 216" d="M621.974,541.439v40.107A12.728,12.728,0,0,0,634.7,594.274h65.312a12.728,12.728,0,0,0,12.728-12.728V541.439Z" transform="translate(2.052 -152.84)" fill="#fff"/>
    <path id="패스_217" data-name="패스 217" d="M1031.852,500.9,835.764,429.024a53.631,53.631,0,0,0-36.918,0L602.76,500.9A27.348,27.348,0,0,1,566,475.229h0a27.347,27.347,0,0,1,17.935-25.677L798.848,370.77a53.631,53.631,0,0,1,36.917,0l214.913,78.782a27.348,27.348,0,0,1,17.935,25.677h0a27.347,27.347,0,0,1-36.761,25.676Z" transform="translate(-9.073 -187.413)" fill="#3f3d56"/>
    <path id="패스_218" data-name="패스 218" d="M814.22,710.51H761.811a21,21,0,0,1-20.978-20.978V562.612a21,21,0,0,1,20.978-20.978h52.408A21,21,0,0,1,835.2,562.612V689.532A21,21,0,0,1,814.22,710.51ZM761.811,545.23a17.4,17.4,0,0,0-17.382,17.382V689.531a17.4,17.4,0,0,0,17.382,17.382h52.408A17.4,17.4,0,0,0,831.6,689.532V562.612a17.4,17.4,0,0,0-17.382-17.382Z" transform="translate(25.675 -152.802)" fill="#3f3d56"/>
    <path id="패스_219" data-name="패스 219" d="M818.818,322.18a37.925,37.925,0,0,0-75.549,0Z" transform="translate(26.16 -203.285)" fill="#fff"/>
    <path id="패스_220" data-name="패스 220" d="M743.151,319.842a37.919,37.919,0,1,0,75.838,0Z" transform="translate(26.136 -196.884)" fill="#fff"/>
    <path id="패스_221" data-name="패스 221" d="M813.792,358.6H750.119a11.437,11.437,0,1,1,0-22.875h63.673a11.437,11.437,0,0,1,0,22.875Z" transform="translate(25.248 -193.726)" fill="#ccc"/>
    <path id="패스_222" data-name="패스 222" d="M624.237,574.713a10.239,10.239,0,0,0,0,20.477H713.65a10.239,10.239,0,0,0,0-20.477Z" transform="translate(0.466 -146.227)" fill="#ccc"/>
    <path id="패스_223" data-name="패스 223" d="M854.216,541.439v40.107a12.728,12.728,0,0,0,12.728,12.728h65.312a12.728,12.728,0,0,0,12.728-12.728V541.439Z" transform="translate(48.211 -152.84)" fill="#fff"/>
    <path id="패스_224" data-name="패스 224" d="M944.985,544.451V518.568a12.728,12.728,0,0,0-12.728-12.728H866.943a12.728,12.728,0,0,0-12.728,12.728v25.882Z" transform="translate(48.211 -159.916)" fill="#fff"/>
    <circle id="타원_38" data-name="타원 38" cx="7.451" cy="7.451" r="7.451" transform="translate(837.399 462.433)" fill="#3f3d56"/>
    <path id="패스_225" data-name="패스 225" d="M500.852,403.691,471.5,358.038l1.358-.874,27.849,43.322,22.694-43.26,1.429.749Z" transform="translate(93.713 70.988)" fill="#3f3d56"/>
    <path id="패스_226" data-name="패스 226" d="M637.476,565.356H567.658v-1.211a14.932,14.932,0,0,0-14.932-14.932h0a14.932,14.932,0,0,0-14.932,14.932v1.211h-6.861a14.932,14.932,0,0,0,0,29.865h6.861V708.065c29.753-.6-.215.6,29.864,0V595.22h69.818a14.932,14.932,0,1,0,0-29.864Z" transform="translate(-19.011 -151.295)" fill="#3f3d56"/>
    <circle id="타원_39" data-name="타원 39" cx="5.65" cy="5.65" r="5.65" transform="translate(527.66 422.938)" fill="#fff"/>
    <path id="패스_227" data-name="패스 227" d="M637.348,644.535H572.787a11.515,11.515,0,0,1-11.5-11.5V612.06a11.514,11.514,0,0,1,11.5-11.5h64.561a11.515,11.515,0,0,1,11.5,11.5v20.975a11.515,11.515,0,0,1-11.5,11.5Z" transform="translate(-10.01 -141.09)" fill="#ccc"/>
    <rect id="사각형_93" data-name="사각형 93" width="50.043" height="8.879" rx="3.703" transform="translate(569.633 476.21)" fill="#3987ee"/>
    <path id="패스_228" data-name="패스 228" d="M1295.849,683.037H102.339a.927.927,0,1,1,0-1.853H1295.853a.927.927,0,0,1,0,1.853Z" transform="translate(-101.412 -125.065)" fill="#ccc"/>
    <path id="패스_229" data-name="패스 229" d="M945.525,596.588H856.112a11.437,11.437,0,1,1,0-22.875h89.413a11.437,11.437,0,0,1,0,22.875Z" transform="translate(46.315 -146.426)" fill="#ccc"/>
    <path id="패스_230" data-name="패스 230" d="M1077.1,401.83s-21.683-1.538-65.932-3.6C958.422,305.93,787,283.681,787,217.271H997.7a79.487,79.487,0,0,1,79.486,79.487Z" transform="translate(34.851 -217.27)" fill="#ccc"/>
    <path id="패스_231" data-name="패스 231" d="M876.853,237.514a1.8,1.8,0,0,0-1.8,1.8v60.034a1.8,1.8,0,0,0,1.8,1.8h37.4a1.8,1.8,0,0,0,1.8-1.8V239.312a1.8,1.8,0,0,0-1.8-1.8Z" transform="translate(52.353 -213.247)" fill="#f2f2f2"/>
    <path id="패스_232" data-name="패스 232" d="M1040.436,396.988,844.349,278.8a53.631,53.631,0,0,0-36.917,0L611.344,396.988a27.348,27.348,0,0,1-36.76-25.677h0a27.347,27.347,0,0,1,17.935-25.677L807.431,220.547a53.631,53.631,0,0,1,36.917,0l214.912,125.088a27.347,27.347,0,0,1,17.935,25.677h0a27.347,27.347,0,0,1-36.76,25.677Z" transform="translate(-7.367 -217.27)" fill="#ccc"/>
  </g>
</svg>
